# xmcd
# Copyright (C) 1995-1998 Ti Kan
#
# Track frame offsets:
#       150
#       15077
#       25402
#       37747
#       53557
#       66002
#       80297
#       89387
#       105830
#       124262
#       139080
#       151935
#       164620
#       179402
#       194540
#       208830
#       222412
#       238200
#       254632
#       273082
#       291747
#       305752
#
# Disc length: 4302 seconds
#
# Revision: 0
# Processed by: cddbd v1.5.2PL0 Copyright (c) Steve Scherf et al.
# Submitted via: CD-Transfer v1.0
#
DISCID=3e10cc16
DTITLE=Madness - 
DYEAR=1900
DGENRE=
TTITLE0=Prince, The
TTITLE1=One Step Beyond
TTITLE2=My Girl
TTITLE3=Night Boat To Cairo
TTITLE4=Baggy Trousers
TTITLE5=Embarrassment
TTITLE6=Return Of The Lost Palmas, The
TTITLE7=Grey Day
TTITLE8=Shut Up
TTITLE9=It Must Be Love
TTITLE10=Cardiac Arrest
TTITLE11=House Of Fun
TTITLE12=Driving In My Car
TTITLE13=Our House
TTITLE14=Tomorrow's Just Another Day
TTITLE15=Wings Of A Dove
TTITLE16=Sun And The Rain, The
TTITLE17=Michael Caine
TTITLE18=One Better Day
TTITLE19=Yesterday's Man
TTITLE20=Uncle Sam
TTITLE21=(Waiting For The) Ghost Train
EXTD=
EXTT0=
EXTT1=
EXTT2=
EXTT3=
EXTT4=
EXTT5=
EXTT6=
EXTT7=
EXTT8=
EXTT9=
EXTT10=
EXTT11=
EXTT12=
EXTT13=
EXTT14=
EXTT15=
EXTT16=
EXTT17=
EXTT18=
EXTT19=
EXTT20=
EXTT21=
PLAYORDER=
